<mxfile host="app.diagrams.net" modified="2021-12-29T14:36:36.718Z" agent="5.0 (X11; Linux x86_64) AppleWebKit/537.36 (KHTML, like Gecko) Chrome/94.0.4606.81 Safari/537.36" etag="JTNxOuqbjrAEEECtO3gW" version="16.0.0" type="github">
  <diagram id="JK5jCosWmCNSfRsNgEmM" name="Page-1">
    <mxGraphModel dx="1098" dy="723" grid="1" gridSize="10" guides="1" tooltips="1" connect="1" arrows="1" fold="1" page="1" pageScale="1" pageWidth="827" pageHeight="1169" math="0" shadow="0">
      <root>
        <mxCell id="0" />
        <mxCell id="1" parent="0" />
        <mxCell id="VbY3p5DHpzxJs17L3YEW-4" style="edgeStyle=orthogonalEdgeStyle;rounded=0;orthogonalLoop=1;jettySize=auto;html=1;entryX=0.467;entryY=-0.073;entryDx=0;entryDy=0;entryPerimeter=0;fontSize=18;" edge="1" parent="1" source="VbY3p5DHpzxJs17L3YEW-1" target="VbY3p5DHpzxJs17L3YEW-2">
          <mxGeometry relative="1" as="geometry" />
        </mxCell>
        <mxCell id="VbY3p5DHpzxJs17L3YEW-5" style="edgeStyle=orthogonalEdgeStyle;rounded=0;orthogonalLoop=1;jettySize=auto;html=1;entryX=0.5;entryY=0;entryDx=0;entryDy=0;fontSize=18;" edge="1" parent="1" source="VbY3p5DHpzxJs17L3YEW-1" target="VbY3p5DHpzxJs17L3YEW-3">
          <mxGeometry relative="1" as="geometry" />
        </mxCell>
        <mxCell id="VbY3p5DHpzxJs17L3YEW-1" value="&lt;font style=&quot;font-size: 18px&quot;&gt;USER&lt;/font&gt;" style="rounded=1;whiteSpace=wrap;html=1;fillColor=#dae8fc;strokeColor=#6c8ebf;" vertex="1" parent="1">
          <mxGeometry x="354" y="50" width="120" height="60" as="geometry" />
        </mxCell>
        <mxCell id="VbY3p5DHpzxJs17L3YEW-9" value="" style="edgeStyle=orthogonalEdgeStyle;rounded=0;orthogonalLoop=1;jettySize=auto;html=1;fontSize=18;" edge="1" parent="1" source="VbY3p5DHpzxJs17L3YEW-2" target="VbY3p5DHpzxJs17L3YEW-7">
          <mxGeometry relative="1" as="geometry" />
        </mxCell>
        <mxCell id="VbY3p5DHpzxJs17L3YEW-2" value="LOGIN" style="rounded=1;whiteSpace=wrap;html=1;fontSize=18;" vertex="1" parent="1">
          <mxGeometry x="110" y="150" width="230" height="60" as="geometry" />
        </mxCell>
        <mxCell id="VbY3p5DHpzxJs17L3YEW-21" value="" style="edgeStyle=orthogonalEdgeStyle;rounded=0;orthogonalLoop=1;jettySize=auto;html=1;fontSize=17;" edge="1" parent="1" source="VbY3p5DHpzxJs17L3YEW-3" target="VbY3p5DHpzxJs17L3YEW-20">
          <mxGeometry relative="1" as="geometry" />
        </mxCell>
        <mxCell id="VbY3p5DHpzxJs17L3YEW-3" value="REGISTER" style="rounded=1;whiteSpace=wrap;html=1;fontSize=18;" vertex="1" parent="1">
          <mxGeometry x="510" y="150" width="230" height="60" as="geometry" />
        </mxCell>
        <mxCell id="VbY3p5DHpzxJs17L3YEW-13" style="edgeStyle=orthogonalEdgeStyle;rounded=0;orthogonalLoop=1;jettySize=auto;html=1;entryX=0.25;entryY=0;entryDx=0;entryDy=0;fontSize=18;" edge="1" parent="1" source="VbY3p5DHpzxJs17L3YEW-7" target="VbY3p5DHpzxJs17L3YEW-10">
          <mxGeometry relative="1" as="geometry" />
        </mxCell>
        <mxCell id="VbY3p5DHpzxJs17L3YEW-14" style="edgeStyle=orthogonalEdgeStyle;rounded=0;orthogonalLoop=1;jettySize=auto;html=1;entryX=0.554;entryY=-0.064;entryDx=0;entryDy=0;entryPerimeter=0;fontSize=18;" edge="1" parent="1" source="VbY3p5DHpzxJs17L3YEW-7" target="VbY3p5DHpzxJs17L3YEW-11">
          <mxGeometry relative="1" as="geometry" />
        </mxCell>
        <mxCell id="VbY3p5DHpzxJs17L3YEW-7" value="User account No / Password" style="rounded=1;whiteSpace=wrap;html=1;fontSize=18;" vertex="1" parent="1">
          <mxGeometry x="130" y="250" width="190" height="50" as="geometry" />
        </mxCell>
        <mxCell id="VbY3p5DHpzxJs17L3YEW-19" value="" style="edgeStyle=orthogonalEdgeStyle;rounded=0;orthogonalLoop=1;jettySize=auto;html=1;fontSize=18;" edge="1" parent="1" source="VbY3p5DHpzxJs17L3YEW-10" target="VbY3p5DHpzxJs17L3YEW-15">
          <mxGeometry relative="1" as="geometry">
            <Array as="points">
              <mxPoint x="160" y="410" />
              <mxPoint x="115" y="410" />
            </Array>
          </mxGeometry>
        </mxCell>
        <mxCell id="VbY3p5DHpzxJs17L3YEW-10" value="CORRECT" style="rounded=1;whiteSpace=wrap;html=1;fontSize=18;" vertex="1" parent="1">
          <mxGeometry x="30" y="340" width="190" height="50" as="geometry" />
        </mxCell>
        <mxCell id="VbY3p5DHpzxJs17L3YEW-12" style="edgeStyle=orthogonalEdgeStyle;rounded=0;orthogonalLoop=1;jettySize=auto;html=1;entryX=1;entryY=0.5;entryDx=0;entryDy=0;fontSize=18;" edge="1" parent="1" source="VbY3p5DHpzxJs17L3YEW-11" target="VbY3p5DHpzxJs17L3YEW-2">
          <mxGeometry relative="1" as="geometry">
            <Array as="points">
              <mxPoint x="450" y="365" />
              <mxPoint x="450" y="275" />
              <mxPoint x="360" y="275" />
              <mxPoint x="360" y="180" />
            </Array>
          </mxGeometry>
        </mxCell>
        <mxCell id="VbY3p5DHpzxJs17L3YEW-11" value="WRONG" style="rounded=1;whiteSpace=wrap;html=1;fontSize=18;" vertex="1" parent="1">
          <mxGeometry x="250" y="340" width="190" height="50" as="geometry" />
        </mxCell>
        <mxCell id="VbY3p5DHpzxJs17L3YEW-15" value="&lt;font style=&quot;font-size: 17px&quot;&gt;DEPOSIT&amp;nbsp;&lt;br&gt;WITHDRAW&lt;br&gt;BALANCE&lt;br&gt;DETAILS&lt;br&gt;CHNG PASS&lt;br&gt;CLOSE AC&lt;/font&gt;" style="rounded=1;whiteSpace=wrap;html=1;fontSize=18;" vertex="1" parent="1">
          <mxGeometry x="30" y="440" width="170" height="170" as="geometry" />
        </mxCell>
        <mxCell id="VbY3p5DHpzxJs17L3YEW-22" style="edgeStyle=orthogonalEdgeStyle;rounded=0;orthogonalLoop=1;jettySize=auto;html=1;fontSize=14;" edge="1" parent="1" source="VbY3p5DHpzxJs17L3YEW-20">
          <mxGeometry relative="1" as="geometry">
            <mxPoint x="300" y="150" as="targetPoint" />
            <Array as="points">
              <mxPoint x="480" y="395" />
              <mxPoint x="480" y="130" />
              <mxPoint x="300" y="130" />
              <mxPoint x="300" y="150" />
            </Array>
          </mxGeometry>
        </mxCell>
        <mxCell id="VbY3p5DHpzxJs17L3YEW-20" value="NAME&lt;br&gt;DOB&lt;br&gt;PHONE_NO&lt;br&gt;ADDRESS&lt;br&gt;PASSWORD&lt;br&gt;&lt;font style=&quot;font-size: 14px&quot;&gt;&lt;b&gt;OPENING AMOUNT ( OPTIONAL )&lt;/b&gt;&lt;/font&gt;" style="whiteSpace=wrap;html=1;fontSize=18;rounded=1;" vertex="1" parent="1">
          <mxGeometry x="540" y="290" width="240" height="210" as="geometry" />
        </mxCell>
      </root>
    </mxGraphModel>
  </diagram>
</mxfile>
